# xmcd
#
# Track frame offsets:
# 150
# 16580
# 32121
# 53398
# 65442
# 81492
# 96073
# 114292
# 127345
# 148709
# 163204
# 180726
# 197039
# 213994
# 233931
# 247583
# 266870
# 281386
# 296051
# 312648
# 324161
# 342572
#
# Disc length: 4786 seconds
#
#
# Revision: 0
# Processed by: cddbd v1.5.2PL0 Copyright (c) Steve Scherf et al.
# Submitted via: FreeRIP 2.93 
#
DISCID=4712b016
DTITLE=Geracao Gaucha - Geracao Gaucha
DYEAR=1900
DGENRE=Gauchesca
TTITLE0=Pancada de Vanera - Tche Barbaridade
TTITLE1=Vai Mexendo o Panelao - Tche Garotos
TTITLE2=Vanerao Sambado - Os Serranos
TTITLE3=Alaquitanga - Tche Guri e Frank Aguiar
TTITLE4=To é Vendo - Tche Garotos
TTITLE5=Pinga na Goela - Os Serranos
TTITLE6=Manda Brasa - Gaucho Fronteira - Tche Garotos
TTITLE7=Uma Chuva de Alegria - Tche Guri
TTITLE8=Barquinho - Candieiro
TTITLE9=Vanera do Povao - Tche Barbaridade
TTITLE10=Carona na 101 - Tche Guri
TTITLE11=Vaneirinha da Saudade - Os Serranos
TTITLE12=Cavalo Veio - Tche Garotos
TTITLE13=Vem na Vanera - Joao Luiz Correa
TTITLE14=Cantando a Saudade - Walther Morais
TTITLE15=Isso so pode ser festa - Tche Garotos
TTITLE16=Peca na Sanfona - Tche Guri
TTITLE17=Dia do Gaucho -Tche Barbaridade
TTITLE18=Tamanho do Brasil -Chiquito e Bordoneio
TTITLE19=No vai e vem - Quero Quero
TTITLE20=Vem no Balanco - Tche Sarandeio
TTITLE21=Eu Quero e festa - Grupo Garotaço
EXTD=
EXTT0=
EXTT1=
EXTT2=
EXTT3=
EXTT4=
EXTT5=
EXTT6=
EXTT7=
EXTT8=
EXTT9=
EXTT10=
EXTT11=
EXTT12=
EXTT13=
EXTT14=
EXTT15=
EXTT16=
EXTT17=
EXTT18=
EXTT19=
EXTT20=
EXTT21=
PLAYORDER=
